<svg xmlns="http://www.w3.org/2000/svg" viewBox="0 0 64 80" x="0px" y="0px"><g data-name="08-Car Battery"><path d="M10,28a1,1,0,0,1,1-1h6a1,1,0,0,1,0,2H11A1,1,0,0,1,10,28Zm37,1h2v2a1,1,0,0,0,2,0V29h2a1,1,0,0,0,0-2H51V25a1,1,0,0,0-2,0v2H47a1,1,0,0,0,0,2Zm13-7V54a2.002,2.002,0,0,1,2,2v4a2.002,2.002,0,0,1-2,2H4a2.002,2.002,0,0,1-2-2V56a2.002,2.002,0,0,1,2-2V22a2.002,2.002,0,0,1-2-2V16a2.002,2.002,0,0,1,2-2H7V12a2.002,2.002,0,0,1,2-2h4a2.002,2.002,0,0,1,2,2v2h3V7a5.0059,5.0059,0,0,1,5-5H41a5.0059,5.0059,0,0,1,5,5v7h3V12a2.002,2.002,0,0,1,2-2h4a2.002,2.002,0,0,1,2,2v2h3a2.002,2.002,0,0,1,2,2v4A2.002,2.002,0,0,1,60,22Zm-9-8h4V12H51ZM20,14h2V7a1,1,0,0,1,1-1H41a1,1,0,0,1,1,1v7h2V7a3.0033,3.0033,0,0,0-3-3H23a3.0033,3.0033,0,0,0-3,3ZM40,8H24v6H40ZM9,14h4V12H9ZM4,20H60.0015L60,16H4ZM60,56H4v4H60.0015ZM58,22H6V54H58ZM22.1147,41.4653a.9992.9992,0,0,1,.0611-1.0317l11-16a1,1,0,0,1,1.8125.7187L33.626,34H41a1,1,0,0,1,.8242,1.5664l-11,16a1,1,0,0,1-1.8125-.7187L30.374,42H23A1,1,0,0,1,22.1147,41.4653ZM24.9009,40H31.54a1,1,0,0,1,.9883,1.1523l-.874,5.6763L39.0991,36H32.46a1,1,0,0,1-.9883-1.1523l.874-5.6763Z"/></g><text x="0" y="79" fill="#000000" font-size="5px" font-weight="bold" font-family="'Helvetica Neue', Helvetica, Arial-Unicode, Arial, Sans-serif">Created by Nawicon</text><text x="0" y="84" fill="#000000" font-size="5px" font-weight="bold" font-family="'Helvetica Neue', Helvetica, Arial-Unicode, Arial, Sans-serif">from the Noun Project</text></svg>