<svg xmlns="http://www.w3.org/2000/svg" viewBox="0 0 64 80" x="0px" y="0px"><g data-name="17-Battery Level"><path d="M17,49h8v2H17a5.0018,5.0018,0,0,1-5-5V42h2v4A3.0088,3.0088,0,0,0,17,49Zm39-8a6.12,6.12,0,0,1,1.14.11l-1.7-9.63A3.0127,3.0127,0,0,0,52.48,29H35.52a3.0127,3.0127,0,0,0-2.96,2.48l-1.7,9.63A6.12,6.12,0,0,1,32,41ZM18,4a1.0029,1.0029,0,0,0-1-1H9A1.0029,1.0029,0,0,0,8,4V5H18ZM29.03,40l.88-5H28a1.0029,1.0029,0,0,0-1,1v3a1.0029,1.0029,0,0,0,1,1ZM60,35H58.09l.88,5H60a1.0029,1.0029,0,0,0,1-1V36A1.0029,1.0029,0,0,0,60,35Zm0,12v7a2.0059,2.0059,0,0,1-2,2H30a2.0059,2.0059,0,0,1-2-2V47a3.9989,3.9989,0,0,1,4-4H56A3.9989,3.9989,0,0,1,60,47ZM37,49.5A2.5,2.5,0,1,0,34.5,52,2.5009,2.5009,0,0,0,37,49.5ZM48,52a1.0029,1.0029,0,0,0-1-1H41a1,1,0,0,0,0,2h6A1.0029,1.0029,0,0,0,48,52Zm0-4a1.0029,1.0029,0,0,0-1-1H41a1,1,0,0,0,0,2h6A1.0029,1.0029,0,0,0,48,48Zm8,1.5A2.5,2.5,0,1,0,53.5,52,2.5009,2.5009,0,0,0,56,49.5ZM31,59a2.0059,2.0059,0,0,0,2,2h3a2.0059,2.0059,0,0,0,2-2V58H31Zm19,0a2.0059,2.0059,0,0,0,2,2h3a2.0059,2.0059,0,0,0,2-2V58H50ZM8,22H18V18H8Zm0-6H18V12H8ZM20,39H6a2.996,2.996,0,0,1-3-3V10A2.996,2.996,0,0,1,6,7H20a2.996,2.996,0,0,1,3,3V36A2.996,2.996,0,0,1,20,39ZM6,36H20V10H6Zm2-2H18V30H8Zm0-6H18V24H8Z"/></g><text x="0" y="79" fill="#000000" font-size="5px" font-weight="bold" font-family="'Helvetica Neue', Helvetica, Arial-Unicode, Arial, Sans-serif">Created by Nawicon</text><text x="0" y="84" fill="#000000" font-size="5px" font-weight="bold" font-family="'Helvetica Neue', Helvetica, Arial-Unicode, Arial, Sans-serif">from the Noun Project</text></svg>